<svg width="24" height="24" viewBox="0 0 24 24" fill="none" xmlns="http://www.w3.org/2000/svg">
<g clip-path="url(#clip0_256_183)">
<path d="M6.99985 8V6C6.99985 4.67392 7.06217 2.93768 7.99985 2C8.93754 1.06232 10.6738 1 11.9999 1C13.3259 1 15.0622 1.06232 15.9999 2C16.9375 2.93768 16.9999 4.67392 16.9999 6V8H19.9999C20.2651 8 20.8123 7.81246 20.9999 8C21.1874 8.18754 20.9999 8.73478 20.9999 9V21C20.9999 21.2652 21.1874 21.8125 20.9999 22C20.8123 22.1875 20.2651 22 19.9999 22H3.99985C3.73464 22 3.18739 22.1875 2.99985 22C2.81232 21.8125 2.99985 21.2652 2.99985 21V9C2.99985 8.73478 2.81232 8.18754 2.99985 8C3.18739 7.81246 3.73464 8 3.99985 8H6.99985ZM6.99985 10H4.99985V20H18.9999V10H16.9999V12H14.9999V10H8.99985V12H6.99985V10ZM8.99985 8H14.9999V6C14.9999 5.20435 14.5625 4.56261 13.9999 4C13.4372 3.43739 12.7955 3 11.9999 3C11.2042 3 10.5625 3.43739 9.99985 4C9.43724 4.56261 8.99985 5.20435 8.99985 6V8Z" fill="#C4C4C4"/>
</g>
<defs>
<clipPath id="clip0_256_183">
<rect width="24" height="24" fill="white"/>
</clipPath>
</defs>
</svg>
