<svg width="19" height="18" viewBox="0 0 19 18" fill="none" xmlns="http://www.w3.org/2000/svg">
<path d="M11.3326 10.7357C9.83979 12.195 9.73122 14.0143 9.60229 18C13.5244 18 16.2319 17.9871 17.6298 16.7014C18.9869 15.3771 19.0005 12.69 19.0005 9.09643C14.7934 9.225 12.873 9.32143 11.3326 10.7357ZM0.00050354 9.09643C0.00050354 12.69 0.014075 15.3771 1.37122 16.7014C2.76907 17.9871 5.47657 18 9.39872 18C9.263 14.0143 9.16122 12.195 7.66836 10.7357C6.128 9.32143 4.20765 9.21857 0.00050354 9.09643ZM9.39872 0C5.48336 0 2.76907 0.0128571 1.37122 1.29857C0.014075 2.62286 0.00050354 5.31 0.00050354 8.90357C4.20765 8.775 6.128 8.67857 7.66836 7.26429C9.16122 5.805 9.26979 3.98571 9.39872 0ZM11.3326 7.26429C9.83979 5.805 9.73122 3.98571 9.60229 0C13.5244 0 16.2319 0.0128571 17.6298 1.29857C18.9869 2.62286 19.0005 5.31 19.0005 8.90357C14.7934 8.775 12.873 8.67857 11.3326 7.26429Z" fill="#888888"/>
</svg>
